<?xml version="1.0" encoding="UTF-8"?>
<svg id="Calque_5" data-name="Calque 5" xmlns="http://www.w3.org/2000/svg" xmlns:xlink="http://www.w3.org/1999/xlink" viewBox="0 0 429.66 441.54">
  <defs>
    <style>
      .cls-1 {
        fill: #004092;
      }

      .cls-1, .cls-2, .cls-3, .cls-4, .cls-5, .cls-6, .cls-7 {
        stroke-width: 0px;
      }

      .cls-2 {
        fill: url(#Dégradé_sans_nom_4);
      }

      .cls-3 {
        fill: none;
      }

      .cls-4 {
        fill: #009af6;
      }

      .cls-5 {
        fill: #5ecaff;
      }

      .cls-6 {
        fill: #0068dd;
      }

      .cls-7 {
        fill: #7cf1ff;
      }
    </style>
    <linearGradient id="Dégradé_sans_nom_4" data-name="Dégradé sans nom 4" x1="210.65" y1="153.27" x2="248.15" y2="313.58" gradientUnits="userSpaceOnUse">
      <stop offset="0" stop-color="#15b3ff"/>
      <stop offset=".05" stop-color="#12a8f7"/>
      <stop offset=".19" stop-color="#0b8ce2"/>
      <stop offset=".34" stop-color="#0677d2"/>
      <stop offset=".51" stop-color="#0267c7"/>
      <stop offset=".71" stop-color="#005ec1"/>
      <stop offset="1" stop-color="#005cbf"/>
    </linearGradient>
  </defs>
  <path class="cls-2" d="m308.17,228.17c0,17.19-5.42,33.11-14.65,46.15-2.63,3.72-5.57,7.21-8.78,10.42-7.44,7.44-16.35,13.4-26.23,17.44-1.04.43-2.09.85-3.15,1.24l-1.53.54c-1.24.42-2.49.81-3.76,1.17-6.96,1.98-14.31,3.04-21.9,3.04-16.46,0-31.77-4.98-44.49-13.51-8.15-5.46-15.23-12.38-20.88-20.38-9.22-13.03-14.63-28.94-14.63-46.11,0-15.34,4.32-29.68,11.81-41.85h.01c2.49-4.05,5.34-7.88,8.51-11.41,3.13-3.52,6.58-6.76,10.3-9.68,3.36-2.64,6.93-5.01,10.69-7.09,11.46-6.36,24.65-9.97,38.68-9.97,14.84,0,28.73,4.04,40.64,11.09,5.83,3.44,11.18,7.59,15.93,12.34,14.47,14.48,23.43,34.48,23.43,56.57Z"/>
  <path class="cls-1" d="m378.73,77.61h0c-5.5,5.5-14.3,5.74-20.16.63-9.12-7.94-18.97-15.06-29.43-21.24-29.58-17.49-64.1-27.53-100.96-27.53-34.47,0-66.88,8.77-95.13,24.21-9.69,5.29-18.89,11.37-27.51,18.14-9.23,7.25-17.81,15.31-25.62,24.06-7.71,8.62-14.66,17.92-20.78,27.8-18.8,30.35-29.66,66.15-29.66,104.49,0,42.67,13.45,82.2,36.34,114.57,11.3,15.99,24.9,30.23,40.33,42.25,6.13,4.78,7.58,13.45,3.23,19.9h0c-4.75,7.06-14.5,8.68-21.22,3.45-17.76-13.82-33.42-30.21-46.42-48.61C15.44,322.55,0,277.17,0,228.17c0-44.04,12.48-85.16,34.09-120.03,7.02-11.33,14.99-21.99,23.83-31.88,8.97-10.05,18.82-19.3,29.43-27.63,9.93-7.8,20.53-14.79,31.68-20.88C151.45,10.06,188.63,0,228.17,0c42.33,0,81.97,11.53,115.94,31.61,12.08,7.14,23.44,15.36,33.95,24.53,6.41,5.59,6.68,15.46.67,21.47Z"/>
  <path class="cls-6" d="m394.3,305.35c7.98,3.72,11.04,13.46,6.68,21.12-22.5,39.48-58.58,71.48-104.62,88.24-38.57,14.04-78.66,15.38-115.71,6.17h0c-62.01-15.4-115.46-60.38-138.96-124.92-11.11-30.53-14.27-62.02-10.54-92.19,1.08-8.75,9.38-14.74,18.01-12.93h0c7.62,1.6,12.79,8.76,11.83,16.48-3.19,25.64-.51,52.41,8.93,78.36,19.95,54.8,65.34,92.98,117.98,106.04,31.44,7.81,65.46,6.66,98.18-5.24,39.11-14.24,69.76-41.44,88.85-74.99,3.86-6.78,12.3-9.42,19.37-6.13h0Z"/>
  <path class="cls-4" d="m329.33,341.55c6.23,6.98,5.16,17.87-2.42,23.35-1.93,1.39-3.88,2.75-5.87,4.06-.21.14-.42.28-.64.42-26.5,17.35-58.19,27.44-92.23,27.44s-67.18-10.56-94.05-28.65c-17.06-11.48-31.9-25.99-43.76-42.76-16.24-22.97-26.88-50.18-29.93-79.64-.98-9.4,6.34-17.6,15.79-17.6,4.07,0,7.81,1.54,10.64,4.1s4.74,6.12,5.16,10.18c2.47,23.91,11.11,45.99,24.29,64.64,9.63,13.63,21.7,25.43,35.56,34.75,21.81,14.67,48.05,23.22,76.3,23.22,29.85,0,57.46-9.55,79.96-25.77,6.62-4.78,15.76-3.83,21.2,2.26h0Z"/>
  <path class="cls-5" d="m305.43,97.18h0c-4.13,7.01-12.87,9.67-20.25,6.29-17.36-7.96-36.66-12.4-57.01-12.4-31.92,0-61.3,10.92-84.59,29.25-2.63,2.07-5.18,4.23-7.65,6.48-5.99,5.46-15.12,5.57-21.17.17h0c-6.99-6.24-7.01-17.14-.08-23.46,3.05-2.78,6.19-5.45,9.44-8,28.65-22.54,64.79-35.98,104.06-35.98,25.08,0,48.89,5.48,70.28,15.32,8.48,3.9,11.72,14.3,6.98,22.34Z"/>
  <line class="cls-3" x1="163.18" y1="145.31" x2="163.01" y2="145.1"/>
  <line class="cls-3" x1="149.61" y1="158.06" x2="149.42" y2="157.89"/>
  <path class="cls-7" d="m154.02,133.64c4.79,6.11,4.42,14.89-1.02,20.43-1.22,1.25-2.42,2.52-3.58,3.82-16.64,18.67-26.75,43.28-26.75,70.25,0,6.28.55,12.43,1.6,18.41l-.18.03c1.96,11.1,5.59,21.49,10.59,30.95,3.66,6.92,1.59,15.48-4.81,20h0c-7.63,5.38-18.33,2.95-22.71-5.3-10.14-19.11-15.88-40.91-15.88-64.05h-.11c0-35.04,13.14-67.01,34.75-91.24,1.49-1.67,3.02-3.3,4.58-4.9,6.57-6.69,17.56-6,23.34,1.38l.18.23Z"/>
  <line class="cls-3" x1="387.56" y1="406.83" x2="340.44" y2="354.01"/>
  <line class="cls-3" x1="319.3" y1="330.31" x2="228.17" y2="228.17"/>
</svg>