<?xml version="1.0" encoding="UTF-8" standalone="no"?>
<svg
   xmlns:dc="http://purl.org/dc/elements/1.1/"
   xmlns:cc="http://creativecommons.org/ns#"
   xmlns:rdf="http://www.w3.org/1999/02/22-rdf-syntax-ns#"
   xmlns:svg="http://www.w3.org/2000/svg"
   xmlns="http://www.w3.org/2000/svg"
   xmlns:sodipodi="http://sodipodi.sourceforge.net/DTD/sodipodi-0.dtd"
   xmlns:inkscape="http://www.inkscape.org/namespaces/inkscape"
   width="19.138659"
   height="19.137777"
   viewBox="0 0 26.499681 11.041025"
   version="1.1"
   id="svg6"
   sodipodi:docname="dsi.svg"
   inkscape:export-filename="D:\Documents\ECLAIR\centralisation\src\assets\icons\dsi.png"
   inkscape:export-xdpi="300"
   inkscape:export-ydpi="300"
   inkscape:version="1.0.2 (e86c870879, 2021-01-15, custom)">
  <metadata
     id="metadata12">
    <rdf:RDF>
      <cc:Work
         rdf:about="">
        <dc:format>image/svg+xml</dc:format>
        <dc:type
           rdf:resource="http://purl.org/dc/dcmitype/StillImage" />
        <dc:title></dc:title>
      </cc:Work>
    </rdf:RDF>
  </metadata>
  <defs
     id="defs10" />
  <sodipodi:namedview
     pagecolor="#ffffff"
     bordercolor="#666666"
     borderopacity="1"
     objecttolerance="10"
     gridtolerance="10"
     guidetolerance="10"
     inkscape:pageopacity="0"
     inkscape:pageshadow="2"
     inkscape:window-width="1920"
     inkscape:window-height="991"
     id="namedview8"
     showgrid="false"
     inkscape:zoom="15.769231"
     inkscape:cx="31.416436"
     inkscape:cy="21.510289"
     inkscape:window-x="-9"
     inkscape:window-y="-9"
     inkscape:window-maximized="1"
     inkscape:current-layer="svg6"
     fit-margin-top="0"
     fit-margin-left="0"
     fit-margin-right="0"
     fit-margin-bottom="0"
     lock-margins="true" />
  <path
     d="m 17.499681,-7.7287179 v 4 h 4 v -2 l -2,-2 z m -5,0 v 4 h 4 v -2 l -2,-2 z m -5.0000004,0 v 4 h 4.0000004 v -2 l -2.0000004,-2 z m 10.0000004,5 v 4 h 4 v -2.00000004 l -2,-1.99999996 z m 7,0 h -2 v 4 h 4 v -2.00000004 z m -12,0 v 4 h 4 v -2.00000004 l -2,-1.99999996 z m -5.0000004,0 v 4 H 11.499681 V -0.72871794 L 9.4996806,-2.7287179 Z m 10.0000004,5 v 4 h 4 v -2 l -2,-2 z m 5,0 v 4 h 4 v -2 l -2,-2 z m -10,0 v 4 h 4 v -2 l -2,-2 z m -5.0000004,0 v 4 h 4.0000004 v -2 l -2.0000004,-2 z m 10.0000004,5 v 3.9999999 h 4 V 9.2712821 l -2,-2 z m 5,0 v 3.9999999 h 4 V 9.2712821 l -2,-2 z m -10,0 v 3.9999999 h 4 V 9.2712821 l -2,-2 z"
     id="path2" />
  <path
     d="m 19.487681,12.271282 c -0.062,0.072 -0.119,0.148 -0.183,0.219 -1.744437,1.914101 -4.215244,3.003725 -6.805,3.001 -2.5900524,0.0028 -5.0611803,-1.086848 -6.8060004,-3.001 -1.5561135,-1.697703 -2.4176901,-3.9180299 -2.414,-6.2209999 0,-1.323 0.278,-2.578 0.78,-3.715 l 0.886,-1.57200004 c 0.4453974,-0.631089 0.9673857,-1.20447 1.554,-1.707 V -4.6897179 c -0.6076051,0.319721 -1.1746572,0.711185 -1.689,1.166 l 0.885,1.055 c -0.7114807,0.554491 -1.3531566,1.193145 -1.911,1.90199996 l -1.079,-0.84999996 c -0.766,0.90299996 -1.362,1.85399996 -1.76100002,3.051 l 1.29000002,0.469 c -0.34,0.836 -0.576,1.71 -0.701,2.604 l -1.35900002,-0.196 c -0.213,1.163 -0.252,2.283 0,3.521 l 1.35300002,-0.239 c 0.125,0.907 0.361,1.781 0.693,2.6059999 l -1.27500002,0.508 c 0.39700002,1.117 0.92400002,2.107 1.76100002,3.052 l 1.053,-0.886 c 0.5546663,0.711993 1.1940475,1.353725 1.904,1.911 l -0.852,1.078 c 0.903,0.766 1.854,1.364 3.051,1.763 l 0.47,-1.29 c 0.82,0.335 1.6950004,0.572 2.6040004,0.699 l -0.198,1.36 c 1.165,0.213 2.287,0.254 3.523,0 l -0.239,-1.352 c 0.894,-0.124 1.77,-0.357 2.607,-0.694 l 0.508,1.276 c 1.116,-0.398 2.105,-0.922 3.05,-1.763 l -0.884,-1.052 c 0.711681,-0.554684 1.35308,-1.194068 1.91,-1.904 l 1.079,0.853 c 0.445064,-0.520442 0.834202,-1.086216 1.161,-1.688 h -3.966 z"
     id="path4"
     sodipodi:nodetypes="cccccccccccccccccccccccccccccccccccccccc" />
</svg>
