<svg
  xmlns="http://www.w3.org/2000/svg"
  width="19.139"
  height="19.138"
  viewBox="0 0 26.5 11.041"
  xmlns:v="https://vecta.io/nano"
>
  <path
    d="M17.5-7.729v4h4v-2l-2-2zm-5 0v4h4v-2l-2-2zm-5 0v4h4v-2l-2-2zm10 5v4h4v-2l-2-2zm7 0h-2v4h4v-2zm-12 0v4h4v-2l-2-2zm-5 0v4h4v-2l-2-2zm10 5v4h4v-2l-2-2zm5 0v4h4v-2l-2-2zm-10 0v4h4v-2l-2-2zm-5 0v4h4v-2l-2-2zm10 5v4h4v-2l-2-2zm5 0v4h4v-2l-2-2zm-10 0v4h4v-2l-2-2zm6.988 5l-.183.219a9.19 9.19 0 0 1-6.805 3.001c-2.59.003-5.061-1.087-6.806-3.001-1.556-1.698-2.418-3.918-2.414-6.221a9.17 9.17 0 0 1 .78-3.715L4.946.982C5.391.351 5.913-.222 6.5-.725V-4.69c-.608.32-1.175.711-1.689 1.166l.885 1.055c-.711.554-1.353 1.193-1.911 1.902l-1.079-.85C1.94-.514 1.344.437.945 1.634l1.29.469c-.34.836-.576 1.71-.701 2.604L.175 4.511c-.213 1.163-.252 2.283 0 3.521l1.353-.239a11 11 0 0 0 .693 2.606l-1.275.508c.397 1.117.924 2.107 1.761 3.052l1.053-.886c.555.712 1.194 1.354 1.904 1.911l-.852 1.078c.903.766 1.854 1.364 3.051 1.763l.47-1.29a10.86 10.86 0 0 0 2.604.699l-.198 1.36c1.165.213 2.287.254 3.523 0l-.239-1.352c.894-.124 1.77-.357 2.607-.694l.508 1.276c1.116-.398 2.105-.922 3.05-1.763l-.884-1.052a11.1 11.1 0 0 0 1.91-1.904l1.079.853c.445-.52.834-1.086 1.161-1.688h-3.966z"
  />
</svg>
