<svg
  xmlns="http://www.w3.org/2000/svg"
  viewBox="0 0 164.24 190.32"
  fill="#04652f"
  xmlns:v="https://vecta.io/nano"
>
  <path
    d="M122.95-.03h-1.41.71.71M.07 127.08L0 123.94l.07-3.35v6.5m66.35 63.26h0a64.79 64.79 0 0 1-3.13-.07h6.27l-3.13.07"
  />
  <path
    d="M164.24 5.92h0M69.56 190.28h-6.27C29.1 188.69 1.67 161.27.07 127.08v-6.5C1.34 91.51 19 64.55 45.19 47.79 45.3 10.89 86.39.11 121.53-.03h1.41c17.23.07 32.87 2.67 41.28 5.95-20.96 16.89-30.67 50.89-63.63 50.89-7.2 0-15.51-1.62-25.28-5.4 18.71-14.04 45.43-26.93 60.25-34.78C90.14 27.9 29.03 57.21 20.64 108.74c-2.43 14.7.61 29.74 12.39 43.61 8.02 9.38 19.92 15.33 33.28 15.33 24.17 0 43.85-19.58 43.85-43.76 0-21.76-15.91-39.81-36.69-43.17a41.17 41.17 0 0 0-6.49-.51c-12.32 0-25.13 5.42-33.79 15.82C40.05 80.56 54.57 65 66.47 57.43c.79-.07 1.59-.1 2.41-.1 7.85 0 16.83 2.85 21.19 4.53 24.99 9.5 42.76 33.72 42.76 62.08 0 35.62-28.06 64.7-63.29 66.34"
  />
</svg>
