<?xml version="1.0" encoding="UTF-8" standalone="no"?><!DOCTYPE svg PUBLIC "-//W3C//DTD SVG 1.1//EN" "http://www.w3.org/Graphics/SVG/1.1/DTD/svg11.dtd"><svg width="100%" height="100%" viewBox="0 0 567 689" version="1.1" xmlns="http://www.w3.org/2000/svg" xmlns:xlink="http://www.w3.org/1999/xlink" xml:space="preserve" xmlns:serif="http://www.serif.com/" style="fill-rule:evenodd;clip-rule:evenodd;stroke-linejoin:round;stroke-miterlimit:2;"><rect id="Logo-Entier-sans-texte" serif:id="Logo Entier sans texte" x="0" y="0" width="567" height="688.5" style="fill:none;"/><g id="Lyon--que-des-courbes--entier-" serif:id="Lyon (que des courbes, entier)"><path d="M405,45.5c0,-1.326 -0.527,-2.598 -1.464,-3.536c-0.938,-0.937 -2.21,-1.464 -3.536,-1.464c-31.445,0 -201.555,0 -233,0c-1.326,0 -2.598,0.527 -3.536,1.464c-0.937,0.938 -1.464,2.21 -1.464,3.536c0,7.785 0,22.715 0,30.5c0,1.326 -0.527,2.598 -1.464,3.536c-0.938,0.937 -2.21,1.464 -3.536,1.464c-14.506,0 -56.494,0 -71,0c-1.326,0 -2.598,0.527 -3.536,1.464c-0.937,0.938 -1.464,2.21 -1.464,3.536c0,7.785 0,22.715 0,30.5c0,1.326 -0.527,2.598 -1.464,3.536c-0.938,0.937 -2.21,1.464 -3.536,1.464l-30.5,0c-1.326,-0 -2.598,0.527 -3.536,1.464c-0.937,0.938 -1.464,2.21 -1.464,3.536c0,37.904 0,278.5 0,278.5l35.5,0c1.326,-0 2.598,0.527 3.536,1.464c0.937,0.938 1.464,2.21 1.464,3.536l0,35.5c0,0 24.668,0 35.5,0c1.326,-0 2.598,0.527 3.536,1.464c0.937,0.938 1.464,2.21 1.464,3.536c0,17.653 0,76 0,76c0,0 58.347,0 76,0c1.326,0 2.598,0.527 3.536,1.464c0.937,0.938 1.464,2.21 1.464,3.536c0,10.832 0,35.5 0,35.5l35.5,0c1.326,-0 2.598,0.527 3.536,1.464c0.937,0.938 1.464,2.21 1.464,3.536l0,35.5l81,0l0,-35.5c-0,-1.326 0.527,-2.598 1.464,-3.536c0.938,-0.937 2.21,-1.464 3.536,-1.464l35.5,0l0,-35.5c-0,-1.326 0.527,-2.598 1.464,-3.536c0.938,-0.937 2.21,-1.464 3.536,-1.464c17.653,0 76,0 76,0l0,-76c0,-1.326 0.527,-2.598 1.464,-3.536c0.938,-0.937 2.21,-1.464 3.536,-1.464c10.832,0 35.5,0 35.5,0l0,-35.5c-0,-1.326 0.527,-2.598 1.464,-3.536c0.938,-0.937 2.21,-1.464 3.536,-1.464l35.5,0l0,-278.5c0,-1.326 -0.527,-2.598 -1.464,-3.536c-0.938,-0.937 -2.21,-1.464 -3.536,-1.464c-7.785,0 -22.715,0 -30.5,0c-1.326,0 -2.598,-0.527 -3.536,-1.464c-0.937,-0.938 -1.464,-2.21 -1.464,-3.536l0,-30.5c0,-1.326 -0.527,-2.598 -1.464,-3.536c-0.938,-0.937 -2.21,-1.464 -3.536,-1.464c-14.506,0 -56.494,0 -71,0c-1.326,-0 -2.598,-0.527 -3.536,-1.464c-0.937,-0.938 -1.464,-2.21 -1.464,-3.536c0,-7.785 0,-22.715 0,-30.5Z" style="fill:#c56038;"/><path d="M121.5,197.5c0,1.326 0.527,2.598 1.464,3.536c0.938,0.937 2.21,1.464 3.536,1.464c10.832,0 35.5,0 35.5,0l0,40.5l-35.5,0c-2.761,-0 -5,2.239 -5,5c0,19.696 0,91.804 0,111.5c0,2.761 2.239,5 5,5c14.506,0 56.494,0 71,0c1.326,-0 2.598,-0.527 3.536,-1.464c0.937,-0.938 1.464,-2.21 1.464,-3.536c0,-10.832 0,-35.5 0,-35.5l162,0l0,35.5c-0,1.326 0.527,2.598 1.464,3.536c0.938,0.937 2.21,1.464 3.536,1.464c14.506,0 56.494,0 71,0c2.761,-0 5,-2.239 5,-5c0,-19.696 0,-91.804 0,-111.5c-0,-2.761 -2.239,-5 -5,-5c-10.832,0 -35.5,0 -35.5,0l0,-40.5l35.5,0c1.326,0 2.598,-0.527 3.536,-1.464c0.937,-0.938 1.464,-2.21 1.464,-3.536c0,-14.506 0,-56.494 0,-71c-0,-2.761 -2.239,-5 -5,-5l-71,0c-1.326,0 -2.598,0.527 -3.536,1.464c-0.937,0.938 -1.464,2.21 -1.464,3.536c0,10.832 0,35.5 0,35.5l-162,0c0,0 0,-24.668 0,-35.5c0,-1.326 -0.527,-2.598 -1.464,-3.536c-0.938,-0.937 -2.21,-1.464 -3.536,-1.464c-14.506,0 -56.494,0 -71,0c-2.761,0 -5,2.239 -5,5l0,71Z" style="fill:#fac24c;"/><path d="M238,243c1.326,-0 2.598,0.527 3.536,1.464c0.937,0.938 1.464,2.21 1.464,3.536c0,17.653 0,76 0,76l-40.5,0c0,0 0,-58.347 0,-76c0,-1.326 0.527,-2.598 1.464,-3.536c0.938,-0.937 2.21,-1.464 3.536,-1.464c7.785,0 22.715,0 30.5,0Z"/><path d="M364.5,248c-0,-1.326 -0.527,-2.598 -1.464,-3.536c-0.938,-0.937 -2.21,-1.464 -3.536,-1.464c-7.785,0 -22.715,0 -30.5,0c-1.326,-0 -2.598,0.527 -3.536,1.464c-0.937,0.938 -1.464,2.21 -1.464,3.536c0,17.653 0,76 0,76l40.5,0l0,-76Z"/><path d="M197.5,162c1.326,-0 2.598,0.527 3.536,1.464c0.937,0.938 1.464,2.21 1.464,3.536c0,7.785 0,22.715 0,30.5c0,1.326 -0.527,2.598 -1.464,3.536c-0.938,0.937 -2.21,1.464 -3.536,1.464l-30.5,-0c-1.326,0 -2.598,-0.527 -3.536,-1.464c-0.937,-0.938 -1.464,-2.21 -1.464,-3.536l0,-30.5c-0,-1.326 0.527,-2.598 1.464,-3.536c0.938,-0.937 2.21,-1.464 3.536,-1.464l30.5,-0Z" style="fill:#fff;"/><path d="M369.5,162c-1.326,-0 -2.598,0.527 -3.536,1.464c-0.937,0.938 -1.464,2.21 -1.464,3.536l0,30.5c-0,1.326 0.527,2.598 1.464,3.536c0.938,0.937 2.21,1.464 3.536,1.464l30.5,0c1.326,0 2.598,-0.527 3.536,-1.464c0.937,-0.938 1.464,-2.21 1.464,-3.536l0,-30.5c0,-1.326 -0.527,-2.598 -1.464,-3.536c-0.938,-0.937 -2.21,-1.464 -3.536,-1.464l-30.5,0Z" style="fill:#fff;"/><path d="M364.5,324l-162,0c0,0 0,24.668 0,35.5c0,1.326 -0.527,2.598 -1.464,3.536c-0.938,0.937 -2.21,1.464 -3.536,1.464l-35.5,0l0,40.5l35.5,0c1.326,-0 2.598,0.527 3.536,1.464c0.937,0.938 1.464,2.21 1.464,3.536l0,35.5l162,0l0,-35.5c-0,-1.326 0.527,-2.598 1.464,-3.536c0.938,-0.937 2.21,-1.464 3.536,-1.464l35.5,0l0,-40.5l-35.5,0c-1.326,0 -2.598,-0.527 -3.536,-1.464c-0.937,-0.938 -1.464,-2.21 -1.464,-3.536l0,-35.5Z" style="fill:#fff;"/><path d="M202.5,410c0,-1.326 -0.527,-2.598 -1.464,-3.536c-0.938,-0.937 -2.21,-1.464 -3.536,-1.464l-35.5,0l0,35.5c-0,1.326 0.527,2.598 1.464,3.536c0.938,0.937 2.21,1.464 3.536,1.464l35.5,0c0,0 0,-24.668 0,-35.5Z" style="fill:#babcc4;"/><path d="M364.5,445.5l-162,0l0,35.5c-0,1.326 0.527,2.598 1.464,3.536c0.938,0.937 2.21,1.464 3.536,1.464c24.08,0 127.92,0 152,0c1.326,0 2.598,-0.527 3.536,-1.464c0.937,-0.938 1.464,-2.21 1.464,-3.536c0,-10.832 0,-35.5 0,-35.5Z" style="fill:#babcc4;"/><path d="M405,405l-35.5,0c-1.326,-0 -2.598,0.527 -3.536,1.464c-0.937,0.938 -1.464,2.21 -1.464,3.536l0,35.5l35.5,0c1.326,0 2.598,-0.527 3.536,-1.464c0.937,-0.938 1.464,-2.21 1.464,-3.536l0,-35.5Z" style="fill:#babcc4;"/><path d="M81,405l-40.5,0l0,35.5c-0,1.326 0.527,2.598 1.464,3.536c0.938,0.937 2.21,1.464 3.536,1.464l35.5,0l0,-40.5Z" style="fill:#a55232;"/><path d="M121.5,445.5l-40.5,0l0,76c0,1.326 0.527,2.598 1.464,3.536c0.938,0.937 2.21,1.464 3.536,1.464c10.832,0 35.5,0 35.5,0l0,-81Z" style="fill:#a55232;"/><path d="M202.5,531.5c0,-1.326 -0.527,-2.598 -1.464,-3.536c-0.938,-0.937 -2.21,-1.464 -3.536,-1.464c-17.653,0 -76,0 -76,0l0,35.5c-0,1.326 0.527,2.598 1.464,3.536c0.938,0.937 2.21,1.464 3.536,1.464c17.653,0 76,0 76,0c0,0 0,-24.668 0,-35.5Z" style="fill:#a55232;"/><path d="M243,572c0,-1.326 -0.527,-2.598 -1.464,-3.536c-0.938,-0.937 -2.21,-1.464 -3.536,-1.464l-35.5,0l0,35.5c-0,1.326 0.527,2.598 1.464,3.536c0.938,0.937 2.21,1.464 3.536,1.464l35.5,0l0,-35.5Z" style="fill:#a55232;"/><path d="M324,607.5l-81,0l0,35.5c-0,1.326 0.527,2.598 1.464,3.536c0.938,0.937 2.21,1.464 3.536,1.464c14.506,0 56.494,0 71,0c1.326,-0 2.598,-0.527 3.536,-1.464c0.937,-0.938 1.464,-2.21 1.464,-3.536c0,-10.832 0,-35.5 0,-35.5Z" style="fill:#a55232;"/><path d="M364.5,567l-35.5,0c-1.326,-0 -2.598,0.527 -3.536,1.464c-0.937,0.938 -1.464,2.21 -1.464,3.536l0,35.5l35.5,0c1.326,0 2.598,-0.527 3.536,-1.464c0.937,-0.938 1.464,-2.21 1.464,-3.536l0,-35.5Z" style="fill:#a55232;"/><path d="M369.5,526.5c-1.326,0 -2.598,0.527 -3.536,1.464c-0.937,0.938 -1.464,2.21 -1.464,3.536c0,10.832 0,35.5 0,35.5l76,0c1.326,-0 2.598,-0.527 3.536,-1.464c0.937,-0.938 1.464,-2.21 1.464,-3.536c0,-10.832 0,-35.5 0,-35.5l-76,0Z" style="fill:#a55232;"/><path d="M450.5,445.5c-1.326,-0 -2.598,0.527 -3.536,1.464c-0.937,0.938 -1.464,2.21 -1.464,3.536c0,17.653 0,76 0,76l35.5,0c1.326,0 2.598,-0.527 3.536,-1.464c0.937,-0.938 1.464,-2.21 1.464,-3.536c0,-17.653 0,-76 0,-76l-35.5,0Z" style="fill:#a55232;"/><path d="M491,405c-1.326,-0 -2.598,0.527 -3.536,1.464c-0.937,0.938 -1.464,2.21 -1.464,3.536l0,35.5l35.5,0c1.326,0 2.598,-0.527 3.536,-1.464c0.937,-0.938 1.464,-2.21 1.464,-3.536l0,-35.5l-35.5,0Z" style="fill:#a55232;"/><path id="Nez--marron-" serif:id="Nez (marron)" d="M243,329c-0,-1.326 0.527,-2.598 1.464,-3.536c0.938,-0.937 2.21,-1.464 3.536,-1.464c14.506,0 56.494,0 71,0c1.326,0 2.598,0.527 3.536,1.464c0.937,0.938 1.464,2.21 1.464,3.536c0,7.785 0,22.715 0,30.5c0,1.326 -0.527,2.598 -1.464,3.536c-0.938,0.937 -2.21,1.464 -3.536,1.464c-14.506,0 -56.494,0 -71,0c-1.326,-0 -2.598,-0.527 -3.536,-1.464c-0.937,-0.938 -1.464,-2.21 -1.464,-3.536c0,-7.785 0,-22.715 0,-30.5Z" style="fill:#c56038;"/></g></svg>