<svg
  xmlns="http://www.w3.org/2000/svg"
  width="100%"
  height="100%"
  viewBox="0 0 567 689"
  fill-rule="evenodd"
  stroke-linejoin="round"
  stroke-miterlimit="2"
  xmlns:v="https://vecta.io/nano"
>
  <path
    d="M405 45.5c0-1.326-.527-2.598-1.464-3.536S401.326 40.5 400 40.5H167c-1.326 0-2.598.527-3.536 1.464S162 44.174 162 45.5V76c0 1.326-.527 2.598-1.464 3.536S158.326 81 157 81H86c-1.326 0-2.598.527-3.536 1.464S81 84.674 81 86v30.5c0 1.326-.527 2.598-1.464 3.536S77.326 121.5 76 121.5H45.5c-1.326 0-2.598.527-3.536 1.464s-1.464 2.21-1.464 3.536V405H76c1.326 0 2.598.527 3.536 1.464S81 408.674 81 410v35.5h35.5c1.326 0 2.598.527 3.536 1.464s1.464 2.21 1.464 3.536v76h76c1.326 0 2.598.527 3.536 1.464s1.464 2.21 1.464 3.536V567H238c1.326 0 2.598.527 3.536 1.464S243 570.674 243 572v35.5h81V572c0-1.326.527-2.598 1.464-3.536S327.674 567 329 567h35.5v-35.5c0-1.326.527-2.598 1.464-3.536s2.21-1.464 3.536-1.464h76v-76c0-1.326.527-2.598 1.464-3.536s2.21-1.464 3.536-1.464H486V410c0-1.326.527-2.598 1.464-3.536S489.674 405 491 405h35.5V126.5c0-1.326-.527-2.598-1.464-3.536s-2.21-1.464-3.536-1.464H491c-1.326 0-2.598-.527-3.536-1.464S486 117.826 486 116.5V86c0-1.326-.527-2.598-1.464-3.536S482.326 81 481 81h-71c-1.326 0-2.598-.527-3.536-1.464S405 77.326 405 76V45.5z"
    fill="#c56038"
  />
  <path
    d="M121.5 197.5c0 1.326.527 2.598 1.464 3.536s2.21 1.464 3.536 1.464H162V243h-35.5a5 5 0 0 0-5 5v111.5a5 5 0 0 0 5 5h71c1.326 0 2.598-.527 3.536-1.464s1.464-2.21 1.464-3.536V324h162v35.5c0 1.326.527 2.598 1.464 3.536s2.21 1.464 3.536 1.464h71a5 5 0 0 0 5-5V248a5 5 0 0 0-5-5H405v-40.5h35.5c1.326 0 2.598-.527 3.536-1.464s1.464-2.21 1.464-3.536v-71a5 5 0 0 0-5-5h-71c-1.326 0-2.598.527-3.536 1.464s-1.464 2.21-1.464 3.536V162h-162v-35.5c0-1.326-.527-2.598-1.464-3.536s-2.21-1.464-3.536-1.464h-71a5 5 0 0 0-5 5v71z"
    fill="#fac24c"
  />
  <path
    d="M238 243c1.326 0 2.598.527 3.536 1.464A5 5 0 0 1 243 248v76h-40.5v-76c0-1.326.527-2.598 1.464-3.536A5 5 0 0 1 207.5 243H238zm126.5 5c0-1.326-.527-2.598-1.464-3.536A5 5 0 0 0 359.5 243H329c-1.326 0-2.598.527-3.536 1.464A5 5 0 0 0 324 248v76h40.5v-76z"
  />
  <path
    d="M197.5 162c1.326 0 2.598.527 3.536 1.464A5 5 0 0 1 202.5 167v30.5c0 1.326-.527 2.598-1.464 3.536a5 5 0 0 1-3.536 1.464H167c-1.326 0-2.598-.527-3.536-1.464A5 5 0 0 1 162 197.5V167c0-1.326.527-2.598 1.464-3.536A5 5 0 0 1 167 162h30.5zm172 0c-1.326 0-2.598.527-3.536 1.464A5 5 0 0 0 364.5 167v30.5c0 1.326.527 2.598 1.464 3.536a5 5 0 0 0 3.536 1.464H400c1.326 0 2.598-.527 3.536-1.464A5 5 0 0 0 405 197.5V167c0-1.326-.527-2.598-1.464-3.536A5 5 0 0 0 400 162h-30.5zm-5 162h-162v35.5c0 1.326-.527 2.598-1.464 3.536a5 5 0 0 1-3.536 1.464H162V405h35.5c1.326 0 2.598.527 3.536 1.464A5 5 0 0 1 202.5 410v35.5h162V410c0-1.326.527-2.598 1.464-3.536A5 5 0 0 1 369.5 405H405v-40.5h-35.5c-1.326 0-2.598-.527-3.536-1.464a5 5 0 0 1-1.464-3.536V324z"
    fill="#fff"
  />
  <g fill="#babcc4">
    <path
      d="M202.5 410c0-1.326-.527-2.598-1.464-3.536S198.826 405 197.5 405H162v35.5c0 1.326.527 2.598 1.464 3.536s2.21 1.464 3.536 1.464h35.5V410z"
    />
    <path
      d="M364.5 445.5h-162V481c0 1.326.527 2.598 1.464 3.536S206.174 486 207.5 486h152c1.326 0 2.598-.527 3.536-1.464s1.464-2.21 1.464-3.536v-35.5z"
    />
    <path
      d="M405 405h-35.5c-1.326 0-2.598.527-3.536 1.464s-1.464 2.21-1.464 3.536v35.5H400c1.326 0 2.598-.527 3.536-1.464S405 441.826 405 440.5V405z"
    />
  </g>
  <g fill="#a55232">
    <path
      d="M81 405H40.5v35.5c0 1.326.527 2.598 1.464 3.536s2.21 1.464 3.536 1.464H81V405z"
    />
    <path
      d="M121.5 445.5H81v76c0 1.326.527 2.598 1.464 3.536S84.674 526.5 86 526.5h35.5v-81z"
    />
    <path
      d="M202.5 531.5c0-1.326-.527-2.598-1.464-3.536s-2.21-1.464-3.536-1.464h-76V562c0 1.326.527 2.598 1.464 3.536S125.174 567 126.5 567h76v-35.5z"
    />
    <path
      d="M243 572c0-1.326-.527-2.598-1.464-3.536S239.326 567 238 567h-35.5v35.5c0 1.326.527 2.598 1.464 3.536s2.21 1.464 3.536 1.464H243V572z"
    />
    <path
      d="M324 607.5h-81V643c0 1.326.527 2.598 1.464 3.536S246.674 648 248 648h71c1.326 0 2.598-.527 3.536-1.464S324 644.326 324 643v-35.5z"
    />
    <path
      d="M364.5 567H329c-1.326 0-2.598.527-3.536 1.464S324 570.674 324 572v35.5h35.5c1.326 0 2.598-.527 3.536-1.464s1.464-2.21 1.464-3.536V567z"
    />
    <path
      d="M369.5 526.5c-1.326 0-2.598.527-3.536 1.464s-1.464 2.21-1.464 3.536V567h76c1.326 0 2.598-.527 3.536-1.464s1.464-2.21 1.464-3.536v-35.5h-76z"
    />
    <path
      d="M450.5 445.5c-1.326 0-2.598.527-3.536 1.464s-1.464 2.21-1.464 3.536v76H481c1.326 0 2.598-.527 3.536-1.464S486 522.826 486 521.5v-76h-35.5z"
    />
    <path
      d="M491 405c-1.326 0-2.598.527-3.536 1.464S486 408.674 486 410v35.5h35.5c1.326 0 2.598-.527 3.536-1.464s1.464-2.21 1.464-3.536V405H491z"
    />
  </g>
  <path
    d="M243 329c0-1.326.527-2.598 1.464-3.536S246.674 324 248 324h71c1.326 0 2.598.527 3.536 1.464S324 327.674 324 329v30.5c0 1.326-.527 2.598-1.464 3.536s-2.21 1.464-3.536 1.464h-71c-1.326 0-2.598-.527-3.536-1.464S243 360.826 243 359.5V329z"
    fill="#c56038"
  />
</svg>
